<svg width="25" height="23" viewBox="0 0 25 23" fill="none" xmlns="http://www.w3.org/2000/svg">
<path d="M21.562 0C22.4736 0 23.3479 0.350718 23.9926 0.975001C24.6372 1.59928 24.9994 2.44599 24.9994 3.32886V9.68396C24.0048 8.39979 22.5243 7.55081 20.8834 7.3238C19.2425 7.09679 17.5756 7.51034 16.2496 8.47347C14.9235 9.4366 14.0469 10.8704 13.8125 12.4595C13.5781 14.0486 14.0051 15.6628 14.9996 16.9469V18.1574H3.43741C2.52575 18.1574 1.65144 17.8067 1.0068 17.1824C0.362154 16.5581 0 15.7114 0 14.8286V3.32886C0 2.44599 0.362154 1.59928 1.0068 0.975001C1.65144 0.350718 2.52575 0 3.43741 0H21.562ZM19.062 4.84198H5.93735C5.68872 4.84198 5.45027 4.93763 5.27445 5.10789C5.09864 5.27815 4.99988 5.50907 4.99988 5.74985C4.99988 5.99063 5.09864 6.22156 5.27445 6.39181C5.45027 6.56207 5.68872 6.65772 5.93735 6.65772H19.062C19.3107 6.65772 19.5491 6.56207 19.7249 6.39181C19.9007 6.22156 19.9995 5.99063 19.9995 5.74985C19.9995 5.50907 19.9007 5.27815 19.7249 5.10789C19.5491 4.93763 19.3107 4.84198 19.062 4.84198ZM12.4997 11.8023C12.4997 11.5615 12.4009 11.3306 12.2251 11.1604C12.0493 10.9901 11.8108 10.8945 11.5622 10.8945H5.93735C5.68872 10.8945 5.45027 10.9901 5.27445 11.1604C5.09864 11.3306 4.99988 11.5615 4.99988 11.8023C4.99988 12.0431 5.09864 12.274 5.27445 12.4443C5.45027 12.6145 5.68872 12.7102 5.93735 12.7102H11.5622C11.8108 12.7102 12.0493 12.6145 12.2251 12.4443C12.4009 12.274 12.4997 12.0431 12.4997 11.8023ZM19.9995 8.47347C21.3257 8.47347 22.5976 8.98367 23.5354 9.89183C24.4732 10.8 25 12.0317 25 13.3161C25 14.6004 24.4732 15.8321 23.5354 16.7403C22.5976 17.6484 21.3257 18.1586 19.9995 18.1586C18.6733 18.1586 17.4014 17.6484 16.4636 16.7403C15.5258 15.8321 14.999 14.6004 14.999 13.3161C14.999 12.0317 15.5258 10.8 16.4636 9.89183C17.4014 8.98367 18.6733 8.47347 19.9995 8.47347ZM16.2496 18.1586C17.2933 18.9188 18.592 19.3691 19.9995 19.3691C21.3518 19.3716 22.6681 18.9475 23.7494 18.1611V22.0903C23.7494 22.7803 22.9932 23.204 22.3869 22.9001L22.2744 22.8336L19.9995 21.295L17.7246 22.8348C17.5932 22.9236 17.4405 22.9784 17.281 22.9938C17.1216 23.0092 16.9607 22.9848 16.8138 22.9229C16.6669 22.861 16.5388 22.7636 16.4417 22.6401C16.3447 22.5166 16.282 22.3711 16.2596 22.2174L16.2496 22.0903V18.1586Z" fill="white"/>
</svg>
