<svg width="24" height="24" viewBox="0 0 24 24" fill="none" xmlns="http://www.w3.org/2000/svg">
<path fill-rule="evenodd" clip-rule="evenodd" d="M0.000433502 11.9998C0.000433502 5.3723 5.37274 0 12.0002 0C18.6277 0 24 5.3723 24 11.9998C24 18.6273 18.6277 23.9996 12.0002 23.9996C9.92427 24.0027 7.88331 23.4651 6.07832 22.4396L1.5796 23.9384C1.36817 24.0089 1.14128 24.0191 0.924362 23.9679C0.707442 23.9167 0.509065 23.8061 0.351466 23.6485C0.193866 23.4909 0.0832731 23.2926 0.0320813 23.0756C-0.0191106 22.8587 -0.00887772 22.6318 0.0616325 22.4204L1.56161 17.9217C0.535723 16.1168 -0.00233152 14.0758 0.000433502 11.9998ZM7.2003 5.99989C6.88205 5.99989 6.57683 6.12632 6.35179 6.35136C6.12675 6.5764 6.00033 6.88162 6.00033 7.19987C6.00033 7.51812 6.12675 7.82334 6.35179 8.04838C6.57683 8.27342 6.88205 8.39985 7.2003 8.39985H16.8001C17.1184 8.39985 17.4236 8.27342 17.6486 8.04838C17.8737 7.82334 18.0001 7.51812 18.0001 7.19987C18.0001 6.88162 17.8737 6.5764 17.6486 6.35136C17.4236 6.12632 17.1184 5.99989 16.8001 5.99989H7.2003ZM7.2003 10.7998C6.88205 10.7998 6.57683 10.9262 6.35179 11.1513C6.12675 11.3763 6.00033 11.6815 6.00033 11.9998C6.00033 12.318 6.12675 12.6233 6.35179 12.8483C6.57683 13.0733 6.88205 13.1998 7.2003 13.1998H16.8001C17.1184 13.1998 17.4236 13.0733 17.6486 12.8483C17.8737 12.6233 18.0001 12.318 18.0001 11.9998C18.0001 11.6815 17.8737 11.3763 17.6486 11.1513C17.4236 10.9262 17.1184 10.7998 16.8001 10.7998H7.2003ZM7.2003 15.5997C6.88205 15.5997 6.57683 15.7261 6.35179 15.9512C6.12675 16.1762 6.00033 16.4814 6.00033 16.7997C6.00033 17.1179 6.12675 17.4232 6.35179 17.6482C6.57683 17.8732 6.88205 17.9997 7.2003 17.9997H10.8002C11.1185 17.9997 11.4237 17.8732 11.6488 17.6482C11.8738 17.4232 12.0002 17.1179 12.0002 16.7997C12.0002 16.4814 11.8738 16.1762 11.6488 15.9512C11.4237 15.7261 11.1185 15.5997 10.8002 15.5997H7.2003Z" fill="white"/>
</svg>
