<svg width="27" height="27" viewBox="0 0 27 27" fill="none" xmlns="http://www.w3.org/2000/svg">
<path fill-rule="evenodd" clip-rule="evenodd" d="M15.2498 0.643428L17.2302 2.3276C17.6618 2.69455 18.1978 2.91658 18.7624 2.96231L21.3536 3.17171C22.6737 3.2784 23.7216 4.32634 23.8283 5.64638L24.0378 8.23756C24.0835 8.8022 24.3055 9.3382 24.6724 9.76979L26.3566 11.7501C27.2145 12.7589 27.2145 14.241 26.3566 15.2498L24.6724 17.2302C24.3055 17.6618 24.0834 18.1978 24.0377 18.7624L23.8282 21.3536C23.7216 22.6737 22.6736 23.7216 21.3536 23.8283L18.7624 24.0378C18.1978 24.0835 17.6618 24.3055 17.2302 24.6724L15.2498 26.3566C14.241 27.2145 12.7589 27.2145 11.7501 26.3566L9.76979 24.6724C9.33821 24.3055 8.80221 24.0834 8.23756 24.0377L5.64638 23.8282C4.32634 23.7216 3.2784 22.6736 3.17171 21.3536L2.96224 18.7624C2.91652 18.1978 2.69449 17.6618 2.32753 17.2302L0.643428 15.2498C-0.214476 14.241 -0.214476 12.7589 0.643428 11.7501L2.3276 9.76979C2.69455 9.33821 2.91658 8.80221 2.96231 8.23756L3.17171 5.64638C3.2784 4.32634 4.32634 3.2784 5.64638 3.17171L8.23756 2.96224C8.80221 2.91652 9.33821 2.69449 9.76979 2.32753L11.7501 0.643428C12.7589 -0.214476 14.241 -0.214476 15.2498 0.643428ZM16.5902 8.49031L13.4947 11.5857L10.3991 8.49018L8.49024 10.3991L11.5858 13.4947L8.49024 16.5902L10.3991 18.4991L13.4947 15.4036L16.5902 18.4991L18.4991 16.5902L15.4036 13.4947L18.4991 10.3991L16.5902 8.49031Z" fill="white"/>
</svg>
